#!OML:ASF I:\golf\golf\golf 2\Subject 1\2002-09-07\Subject1.ASF
:FULLY-SPECIFIED
:DEGREES
259
root -10.205 18.0023 5.31674 -69.4398 84.755 -85.3351
lowerback 3.84672 1.49855 -2.03763
upperback 5.87785 2.0696 3.21978
thorax 3.73138 0.954223 4.47215
lowerneck -12.2208 -0.0538687 3.21881
upperneck 42.1488 3.55176 -4.61934
head 17.8267 2.01278 -1.87868
rclavicle 1.28216e-014 6.55989e-015
rhumerus -11.0307 24.8794 -100.678
rradius 37.9396
rwrist -42.6005
rhand -30.7995 -10.3124
rfingers 7.12502
rthumb -4.08948 -40.2529
lclavicle 1.28216e-014 6.55989e-015
lhumerus -8.90479 -38.6651 105.854
lradius 35.4312
lwrist 48.644
lhand -4.65167 55.8725
lfingers 7.12502
lthumb 21.1281 84.7413
rfemur -29.1648 -1.82712 17.9148
rtibia 25.436
rfoot -6.67401 -5.01042
rtoes -2.2541
lfemur -29.8603 5.61974 -10.4411
ltibia 28.8353
lfoot -10.8892 -2.3169
ltoes -15.7324
260
root -10.2034 18.0079 5.30958 -71.8689 84.8819 -87.7945
lowerback 3.84494 1.54179 -2.02911
upperback 5.85877 2.12743 3.20274
thorax 3.70775 0.984383 4.4482
lowerneck -12.1554 -0.116903 3.28488
upperneck 42.0779 3.4434 -4.64623
head 17.7609 1.97892 -1.92049
rclavicle 1.98785e-015 3.37934e-015
rhumerus -11.0602 25.0339 -100.725
rradius 38.0136
rwrist -42.5995
rhand -31.058 -10.5246
rfingers 7.12502
rthumb -4.33912 -40.4602
lclavicle 1.98785e-015 3.37934e-015
lhumerus -8.90702 -38.6316 105.843
lradius 35.4011
lwrist 48.5564
lhand -4.63356 55.8
lfingers 7.12502
lthumb 21.1455 84.6669
rfemur -29.0675 -1.79604 17.7416
rtibia 25.3003
rfoot -6.59165 -5.32212
rtoes -2.46554
lfemur -29.8172 5.45362 -10.5348
ltibia 28.6434
lfoot -10.803 -2.46375
ltoes -14.9695
261
root -10.2023 18.0174 5.30269 -75.0978 84.9237 -91.0518
lowerback 3.85184 1.57729 -1.93944
upperback 5.84167 2.1762 3.21337
thorax 3.68373 1.01306 4.40721
lowerneck -12.2475 -0.185454 3.32855
upperneck 42.1577 3.32338 -4.60502
head 17.8235 1.94692 -1.93114
rclavicle -1.88845e-015 1.5704e-014
rhumerus -11.0905 25.0412 -100.73
rradius 38.0812
rwrist -42.4356
rhand -30.8601 -10.7002
rfingers 7.12502
rthumb -4.14806 -40.6395
lclavicle -1.88845e-015 1.5704e-014
lhumerus -8.93194 -38.6278 105.803
lradius 35.4007
lwrist 48.3383
lhand -4.22671 55.7357
lfingers 7.12502
lthumb 21.5362 84.5583
rfemur -28.938 -1.75449 17.6588
rtibia 25.1227
rfoot -6.51246 -5.64713
rtoes -2.36334
lfemur -29.7446 5.17917 -10.4554
ltibia 28.4502
lfoot -10.6532 -2.80497
ltoes -12.4456
262
root -10.2003 18.0264 5.29581 -79.0173 84.927 -94.9731
lowerback 3.85741 1.56802 -1.81452
upperback 5.83946 2.1663 3.24719
thorax 3.68181 1.01317 4.37185
lowerneck -12.3263 -0.230595 3.26625
upperneck 42.2367 3.2413 -4.49005
head 17.8814 1.92261 -1.88113
rclavicle -4.22417e-014 -4.29375e-014
rhumerus -11.1507 25.1053 -100.735
rradius 38.1768
rwrist -42.418
rhand -30.6047 -10.85
rfingers 7.12502
rthumb -3.90141 -40.794
lclavicle -4.22417e-014 -4.29375e-014
lhumerus -8.94542 -38.3993 105.783
lradius 35.3902
lwrist 48.0155
lhand -3.95229 55.6605
lfingers 7.12502
lthumb 21.7998 84.4527
rfemur -28.7528 -1.79673 17.6264
rtibia 24.9162
rfoot -6.43291 -5.93456
rtoes -2.58588
lfemur -29.7194 4.98365 -10.4374
ltibia 28.2625
lfoot -10.5863 -2.96944
ltoes -12.0756
263
root -10.1965 18.032 5.29015 -81.4563 84.9355 -97.4012
lowerback 3.85251 1.58863 -1.78033
upperback 5.8487 2.19478 3.31315
thorax 3.69066 1.028 4.42167
lowerneck -12.3298 -0.267924 3.05397
upperneck 42.2257 3.18846 -4.33459
head 17.8642 1.88983 -1.77775
rclavicle -1.39149e-015 -5.96354e-016
rhumerus -11.1454 25.1873 -100.694
rradius 38.1345
rwrist -42.3605
rhand -30.3533 -10.9267
rfingers 7.12502
rthumb -3.65868 -40.8751
lclavicle -1.39149e-015 -5.96354e-016
lhumerus -8.9735 -38.2656 105.829
lradius 35.4662
lwrist 48.015
lhand -4.21317 55.7956
lfingers 7.12502
lthumb 21.5492 84.6167
rfemur -28.578 -1.77409 17.5522
rtibia 24.7363
rfoot -6.37912 -6.15455
rtoes -2.81312
lfemur -29.6707 4.99708 -10.5441
ltibia 28.0548
lfoot -10.5509 -3.06316
ltoes -13.0477
264
root -10.1931 18.0366 5.28771 -81.7563 84.9548 -97.6795
lowerback 3.8525 1.70676 -1.8667
upperback 5.86588 2.3514 3.40105
thorax 3.6888 1.10179 4.56103
lowerneck -12.3374 -0.355686 2.86513
upperneck 42.2038 3.08856 -4.27029
head 17.8416 1.83081 -1.7294
rclavicle 9.34288e-015 1.94809e-014
rhumerus -11.0453 25.0911 -100.616
rradius 37.9253
rwrist -42.1413
rhand -30.1622 -10.7673
rfingers 7.12502
rthumb -3.47409 -40.7187
lclavicle 9.34288e-015 1.94809e-014
lhumerus -8.99404 -38.361 105.919
lradius 35.5657
lwrist 48.1368
lhand -4.41557 55.9583
lfingers 7.12502
lthumb 21.3548 84.8016
rfemur -28.4544 -1.61748 17.4554
rtibia 24.6092
rfoot -6.3255 -6.34014
rtoes -2.80703
lfemur -29.529 5.13988 -10.645
ltibia 27.8202
lfoot -10.442 -3.36281
ltoes -12.938
